<svg width="21" height="21" viewBox="0 0 21 21" fill="none" xmlns="http://www.w3.org/2000/svg">
<path d="M10.5 3.20801C10.6658 3.20801 10.8247 3.27386 10.942 3.39107C11.0592 3.50828 11.125 3.66725 11.125 3.83301C11.125 3.99877 11.0592 4.15774 10.942 4.27495C10.8247 4.39216 10.6658 4.45801 10.5 4.45801C8.89766 4.45801 7.36094 5.09454 6.22791 6.22757C5.09487 7.3606 4.45834 8.89732 4.45834 10.4997C4.45834 12.102 5.09487 13.6387 6.22791 14.7718C7.36094 15.9048 8.89766 16.5413 10.5 16.5413C10.6658 16.5413 10.8247 16.6072 10.942 16.7244C11.0592 16.8416 11.125 17.0006 11.125 17.1663C11.125 17.3321 11.0592 17.4911 10.942 17.6083C10.8247 17.7255 10.6658 17.7913 10.5 17.7913C8.56614 17.7913 6.71148 17.0231 5.34402 15.6557C3.97657 14.2882 3.20834 12.4335 3.20834 10.4997C3.20834 8.5658 3.97657 6.71114 5.34402 5.34369C6.71148 3.97623 8.56614 3.20801 10.5 3.20801Z" fill="#F8F9FC"/>
<path d="M14.225 8.4417C14.1146 8.32322 14.0545 8.16652 14.0574 8.0046C14.0602 7.84268 14.1258 7.68819 14.2403 7.57368C14.3548 7.45917 14.5093 7.39358 14.6712 7.39072C14.8332 7.38787 14.9899 7.44797 15.1083 7.55837L17.6083 10.0584C17.7254 10.1756 17.7911 10.3344 17.7911 10.5C17.7911 10.6657 17.7254 10.8245 17.6083 10.9417L15.1083 13.4417C15.0511 13.5031 14.9821 13.5524 14.9055 13.5865C14.8288 13.6207 14.746 13.639 14.6621 13.6405C14.5782 13.642 14.4948 13.6266 14.417 13.5951C14.3392 13.5637 14.2685 13.5169 14.2091 13.4576C14.1498 13.3982 14.103 13.3275 14.0716 13.2497C14.0401 13.1719 14.0247 13.0885 14.0262 13.0046C14.0277 12.9207 14.046 12.8379 14.0802 12.7613C14.1144 12.6846 14.1636 12.6156 14.225 12.5584L15.6583 11.125H8.83334C8.66758 11.125 8.50861 11.0592 8.3914 10.942C8.27419 10.8248 8.20834 10.6658 8.20834 10.5C8.20834 10.3343 8.27419 10.1753 8.3914 10.0581C8.50861 9.94088 8.66758 9.87504 8.83334 9.87504H15.6583L14.225 8.4417Z" fill="#F8F9FC"/>
</svg>
