<svg width="36" height="37" viewBox="0 0 36 37" fill="none" xmlns="http://www.w3.org/2000/svg">
<g filter="url(#filter0_d_1538_821)">
<path d="M0 0H32C34.2091 0 36 1.79086 36 4V32C36 34.2091 34.2091 36 32 36H0V0Z" fill="white"/>
<path d="M0.5 0.5H32C33.933 0.5 35.5 2.067 35.5 4V32C35.5 33.933 33.933 35.5 32 35.5H0.5V0.5Z" stroke="#BABFC3"/>
<g clip-path="url(#clip0_1538_821)">
<path fill-rule="evenodd" clip-rule="evenodd" d="M16 24.0002C15.744 24.0002 15.488 23.9022 15.293 23.7072C14.902 23.3162 14.902 22.6842 15.293 22.2933L19.586 18.0002L15.293 13.7072C14.902 13.3162 14.902 12.6842 15.293 12.2932C15.684 11.9022 16.316 11.9022 16.707 12.2932L21.707 17.2933C22.098 17.6842 22.098 18.3163 21.707 18.7073L16.707 23.7072C16.512 23.9022 16.256 24.0002 16 24.0002Z" fill="#5C5F62"/>
</g>
</g>
<defs>
<filter id="filter0_d_1538_821" x="0" y="0" width="36" height="37" filterUnits="userSpaceOnUse" color-interpolation-filters="sRGB">
<feFlood flood-opacity="0" result="BackgroundImageFix"/>
<feColorMatrix in="SourceAlpha" type="matrix" values="0 0 0 0 0 0 0 0 0 0 0 0 0 0 0 0 0 0 127 0" result="hardAlpha"/>
<feOffset dy="1"/>
<feComposite in2="hardAlpha" operator="out"/>
<feColorMatrix type="matrix" values="0 0 0 0 0 0 0 0 0 0 0 0 0 0 0 0 0 0 0.05 0"/>
<feBlend mode="normal" in2="BackgroundImageFix" result="effect1_dropShadow_1538_821"/>
<feBlend mode="normal" in="SourceGraphic" in2="effect1_dropShadow_1538_821" result="shape"/>
</filter>
<clipPath id="clip0_1538_821">
<rect width="20" height="20" fill="white" transform="translate(8 8)"/>
</clipPath>
</defs>
</svg>
