<svg width="29" height="29" viewBox="0 0 29 29" fill="none" xmlns="http://www.w3.org/2000/svg">
<path d="M14.5002 22.7529V14.5" stroke="#323232" stroke-width="1.5" stroke-linecap="round" stroke-linejoin="round"/>
<path d="M11.8813 16.9163L14.4998 14.2979L17.1183 16.9163" stroke="#323232" stroke-width="1.5" stroke-linecap="round" stroke-linejoin="round"/>
<path d="M9.66674 22.9587H7.78174" stroke="#323232" stroke-width="1.5" stroke-linecap="round" stroke-linejoin="round"/>
<path d="M14.6509 6.04199C18.6505 6.04199 21.9009 9.29241 21.9009 13.292" stroke="#323232" stroke-width="1.5" stroke-linecap="round" stroke-linejoin="round"/>
<path d="M7.50624 12.1113C4.63403 12.2575 2.34424 14.6126 2.34424 17.521C2.34424 20.5237 4.77903 22.9585 7.78174 22.9585" stroke="#323232" stroke-width="1.5" stroke-linecap="round" stroke-linejoin="round"/>
<path d="M7.50635 12.1115C8.07185 8.67374 11.054 6.04199 14.6512 6.04199" stroke="#323232" stroke-width="1.5" stroke-linecap="round" stroke-linejoin="round"/>
<path d="M22.4268 14.5C24.7564 14.5 26.6559 16.3995 26.6559 18.7292C26.6559 21.0588 24.7564 22.9583 22.4268 22.9583" stroke="#323232" stroke-width="1.5" stroke-linecap="round" stroke-linejoin="round"/>
<path d="M22.4265 14.5003H21.9009V13.292" stroke="#323232" stroke-width="1.5" stroke-linecap="round" stroke-linejoin="round"/>
<path d="M22.4268 22.9587H19.3335" stroke="#323232" stroke-width="1.5" stroke-linecap="round" stroke-linejoin="round"/>
</svg>
