<svg width="266" height="48" viewBox="0 0 266 48" fill="none" xmlns="http://www.w3.org/2000/svg">
<rect x="0.5" y="0.5" width="265" height="47" rx="3.5" fill="white"/>
<rect x="0.5" y="0.5" width="265" height="47" rx="3.5" stroke="#6F48FF" stroke-dasharray="8 8"/>
<path d="M88.7143 25.2857H82.2857V31.7143C82.2857 32.4214 81.7071 33 81 33C80.2929 33 79.7143 32.4214 79.7143 31.7143V25.2857H73.2857C72.5786 25.2857 72 24.7071 72 24C72 23.2929 72.5786 22.7143 73.2857 22.7143H79.7143V16.2857C79.7143 15.5786 80.2929 15 81 15C81.7071 15 82.2857 15.5786 82.2857 16.2857V22.7143H88.7143C89.4214 22.7143 90 23.2929 90 24C90 24.7071 89.4214 25.2857 88.7143 25.2857Z" fill="#6F48FF"/>
<path d="M107.82 16.7607L111.614 27.1104V27.5H109.57L108.805 25.2578H104.143L103.356 27.5H101.285V27.1104L105.093 16.7607H107.82ZM104.785 23.3848H108.155L106.562 18.7227H106.405L104.785 23.3848ZM115.736 27.6572H115.729C114.752 27.6572 113.952 27.3018 113.33 26.584C112.708 25.8662 112.394 24.9092 112.394 23.7061C112.394 22.5029 112.701 21.5459 113.323 20.8281C113.945 20.1104 114.752 19.7549 115.743 19.7549C116.461 19.7549 117.076 19.9531 117.589 20.3428H117.794V16.7607H119.674V27.5H118.102L117.821 26.9121H117.671C117.117 27.4111 116.475 27.6572 115.736 27.6572ZM116.099 25.9893C116.687 25.9893 117.145 25.7842 117.473 25.3809C117.801 24.9775 117.965 24.417 117.965 23.6992C117.965 22.9678 117.801 22.4004 117.473 21.9971C117.145 21.5938 116.687 21.3887 116.099 21.3887C115.518 21.3887 115.066 21.5938 114.738 21.9971C114.41 22.4004 114.246 22.9678 114.246 23.6992C114.246 24.417 114.41 24.9775 114.738 25.3809C115.066 25.7842 115.518 25.9893 116.099 25.9893ZM124.705 27.6572H124.698C123.721 27.6572 122.921 27.3018 122.299 26.584C121.677 25.8662 121.362 24.9092 121.362 23.7061C121.362 22.5029 121.67 21.5459 122.292 20.8281C122.914 20.1104 123.721 19.7549 124.712 19.7549C125.43 19.7549 126.045 19.9531 126.558 20.3428H126.763V16.7607H128.643V27.5H127.07L126.79 26.9121H126.64C126.086 27.4111 125.443 27.6572 124.705 27.6572ZM125.067 25.9893C125.655 25.9893 126.113 25.7842 126.441 25.3809C126.77 24.9775 126.934 24.417 126.934 23.6992C126.934 22.9678 126.77 22.4004 126.441 21.9971C126.113 21.5938 125.655 21.3887 125.067 21.3887C124.486 21.3887 124.035 21.5938 123.707 21.9971C123.379 22.4004 123.215 22.9678 123.215 23.6992C123.215 24.417 123.379 24.9775 123.707 25.3809C124.035 25.7842 124.486 25.9893 125.067 25.9893ZM134.986 27.5L134.973 16.7471H138.288C138.801 16.7471 139.197 16.7539 139.478 16.7744C139.758 16.7949 140.106 16.8633 140.523 16.9795C140.94 17.0957 141.296 17.2734 141.59 17.5059C142.157 17.9639 142.444 18.6133 142.444 19.4541C142.444 20.4316 142.021 21.1631 141.18 21.6416V21.792C142.28 22.1748 142.834 23.0088 142.834 24.2871C142.834 25.3604 142.458 26.1943 141.713 26.7822C141.378 27.042 140.947 27.2266 140.421 27.3359C139.895 27.4453 139.163 27.5 138.22 27.5H134.986ZM137.071 20.9648L138.11 20.9512C138.5 20.9512 138.787 20.9512 138.965 20.9443C139.143 20.9375 139.327 20.9102 139.525 20.8691C139.724 20.8281 139.874 20.7598 139.977 20.6709C140.209 20.4863 140.325 20.1992 140.325 19.8096C140.325 19.4199 140.202 19.126 139.963 18.9277C139.847 18.8389 139.689 18.7705 139.484 18.7227C139.279 18.6748 139.095 18.6475 138.931 18.6406C138.767 18.6338 138.514 18.627 138.165 18.627H137.071V20.9648ZM137.058 25.6133L138.138 25.627C139.163 25.627 139.847 25.5039 140.195 25.2578C140.544 25.0049 140.715 24.6152 140.715 24.0889C140.715 23.6309 140.578 23.3027 140.305 23.0977C140.229 23.043 140.147 22.9951 140.059 22.9541C139.97 22.9131 139.888 22.8857 139.812 22.8652C139.737 22.8447 139.628 22.8311 139.478 22.8242C139.327 22.8174 139.204 22.8105 139.102 22.8105C138.999 22.8105 138.835 22.8105 138.609 22.8174C138.384 22.8242 138.199 22.8242 138.056 22.8242H137.058V25.6133ZM147.223 27.6572V27.6641C146.252 27.6641 145.534 27.377 145.069 26.8096C144.864 26.5566 144.707 26.2422 144.598 25.8594C144.488 25.4766 144.427 25.1689 144.413 24.9365C144.399 24.7041 144.393 24.3965 144.393 24.0137V19.9121H146.272V23.5488C146.272 24.5264 146.389 25.1689 146.621 25.4697C146.874 25.791 147.264 25.9482 147.797 25.9482C148.33 25.9482 148.727 25.8047 148.986 25.5107C149.253 25.21 149.39 24.6084 149.39 23.7061V19.9121H151.256V27.5H149.67L149.39 26.9121H149.239C148.706 27.4111 148.036 27.6572 147.223 27.6572ZM156.301 27.6572L156.28 27.6982C155.303 27.6982 154.503 27.4521 153.881 26.9668C153.259 26.4814 152.951 25.8115 152.951 24.957H154.811C154.899 25.7842 155.398 26.2012 156.308 26.2012C157.148 26.2012 157.572 25.9141 157.579 25.333C157.579 25.1348 157.518 24.9707 157.395 24.8408C157.271 24.7109 157.148 24.6289 157.032 24.5947C156.916 24.5605 156.766 24.5264 156.588 24.4922L155.371 24.2666C153.812 23.9863 153.033 23.2891 153.033 22.1748C153.033 21.457 153.32 20.876 153.901 20.4385C154.482 20.001 155.207 19.7822 156.075 19.7822C156.943 19.7822 157.675 20.001 158.27 20.4453C158.864 20.8896 159.206 21.4775 159.295 22.2158H157.429C157.299 21.5801 156.841 21.2656 156.055 21.2656C155.727 21.2656 155.453 21.3271 155.241 21.457C155.029 21.5869 154.92 21.7715 154.92 22.0107C154.92 22.2227 155.016 22.373 155.214 22.4619C155.412 22.5508 155.768 22.6396 156.287 22.7354L157.114 22.8857C158.673 23.1865 159.452 23.9385 159.452 25.1416C159.452 25.9072 159.165 26.5156 158.591 26.9736C158.017 27.4316 157.251 27.6572 156.301 27.6572ZM162.084 18.9072C161.763 18.9072 161.489 18.791 161.264 18.5654C161.038 18.3398 160.929 18.0664 160.929 17.7451C160.929 17.4375 161.045 17.1709 161.271 16.9453C161.496 16.7197 161.77 16.6104 162.084 16.6104C162.392 16.6104 162.658 16.7197 162.884 16.9453C163.109 17.1709 163.219 17.4375 163.219 17.7451C163.219 18.0664 163.109 18.3398 162.884 18.5654C162.658 18.791 162.392 18.9072 162.084 18.9072ZM161.147 27.5V19.9121H163.007V27.5H161.147ZM165.304 27.5V19.9053H166.896L167.177 20.4932H167.334C167.867 19.9941 168.537 19.748 169.351 19.748C170.321 19.748 171.039 20.0352 171.504 20.6025C171.709 20.8555 171.866 21.1699 171.976 21.5527C172.085 21.9355 172.146 22.2432 172.16 22.4756C172.174 22.708 172.181 23.0156 172.181 23.3984V27.5H170.301V23.8633C170.301 22.8857 170.185 22.2432 169.952 21.9424C169.699 21.6211 169.31 21.4639 168.776 21.4639C168.243 21.4639 167.847 21.6074 167.587 21.9014C167.32 22.2021 167.184 22.8037 167.177 23.7061V27.5H165.304ZM181.272 23.6924L181.266 23.6992C181.266 23.9385 181.259 24.1162 181.252 24.2324H175.496C175.578 24.8408 175.79 25.3057 176.125 25.627C176.46 25.9482 176.897 26.1055 177.431 26.1055C178.169 26.1055 178.688 25.8115 178.996 25.2236H181.04C180.801 25.9961 180.37 26.5977 179.741 27.0215C179.112 27.4453 178.347 27.6572 177.438 27.6572C176.255 27.6572 175.325 27.3018 174.642 26.5908C173.958 25.8799 173.616 24.916 173.616 23.6924C173.616 22.5234 173.958 21.5732 174.642 20.8418C175.325 20.1104 176.255 19.748 177.431 19.748C178.606 19.748 179.543 20.1104 180.233 20.8418C180.924 21.5732 181.272 22.5234 181.272 23.6924ZM177.431 21.3203H177.444C176.426 21.3203 175.797 21.8193 175.558 22.8174H179.297C179.071 21.8193 178.449 21.3203 177.431 21.3203ZM185.641 27.6572L185.62 27.6982C184.643 27.6982 183.843 27.4521 183.221 26.9668C182.599 26.4814 182.291 25.8115 182.291 24.957H184.15C184.239 25.7842 184.738 26.2012 185.647 26.2012C186.488 26.2012 186.912 25.9141 186.919 25.333C186.919 25.1348 186.857 24.9707 186.734 24.8408C186.611 24.7109 186.488 24.6289 186.372 24.5947C186.256 24.5605 186.105 24.5264 185.928 24.4922L184.711 24.2666C183.152 23.9863 182.373 23.2891 182.373 22.1748C182.373 21.457 182.66 20.876 183.241 20.4385C183.822 20.001 184.547 19.7822 185.415 19.7822C186.283 19.7822 187.015 20.001 187.609 20.4453C188.204 20.8896 188.546 21.4775 188.635 22.2158H186.769C186.639 21.5801 186.181 21.2656 185.395 21.2656C185.066 21.2656 184.793 21.3271 184.581 21.457C184.369 21.5869 184.26 21.7715 184.26 22.0107C184.26 22.2227 184.355 22.373 184.554 22.4619C184.752 22.5508 185.107 22.6396 185.627 22.7354L186.454 22.8857C188.013 23.1865 188.792 23.9385 188.792 25.1416C188.792 25.9072 188.505 26.5156 187.931 26.9736C187.356 27.4316 186.591 27.6572 185.641 27.6572ZM193.242 27.6572L193.222 27.6982C192.244 27.6982 191.444 27.4521 190.822 26.9668C190.2 26.4814 189.893 25.8115 189.893 24.957H191.752C191.841 25.7842 192.34 26.2012 193.249 26.2012C194.09 26.2012 194.514 25.9141 194.521 25.333C194.521 25.1348 194.459 24.9707 194.336 24.8408C194.213 24.7109 194.09 24.6289 193.974 24.5947C193.857 24.5605 193.707 24.5264 193.529 24.4922L192.312 24.2666C190.754 23.9863 189.975 23.2891 189.975 22.1748C189.975 21.457 190.262 20.876 190.843 20.4385C191.424 20.001 192.148 19.7822 193.017 19.7822C193.885 19.7822 194.616 20.001 195.211 20.4453C195.806 20.8896 196.147 21.4775 196.236 22.2158H194.37C194.24 21.5801 193.782 21.2656 192.996 21.2656C192.668 21.2656 192.395 21.3271 192.183 21.457C191.971 21.5869 191.861 21.7715 191.861 22.0107C191.861 22.2227 191.957 22.373 192.155 22.4619C192.354 22.5508 192.709 22.6396 193.229 22.7354L194.056 22.8857C195.614 23.1865 196.394 23.9385 196.394 25.1416C196.394 25.9072 196.106 26.5156 195.532 26.9736C194.958 27.4316 194.192 27.6572 193.242 27.6572Z" fill="#6F48FF"/>
</svg>
