<svg width="459" height="48" viewBox="0 0 459 48" fill="none" xmlns="http://www.w3.org/2000/svg">
<rect x="0.5" y="0.5" width="458" height="47" rx="3.5" fill="white"/>
<rect x="0.5" y="0.5" width="458" height="47" rx="3.5" stroke="#9CA3AF" stroke-dasharray="8 8"/>
<path d="M189.714 25.2857H183.286V31.7143C183.286 32.4214 182.707 33 182 33C181.293 33 180.714 32.4214 180.714 31.7143V25.2857H174.286C173.579 25.2857 173 24.7071 173 24C173 23.2929 173.579 22.7143 174.286 22.7143H180.714V16.2857C180.714 15.5786 181.293 15 182 15C182.707 15 183.286 15.5786 183.286 16.2857V22.7143H189.714C190.421 22.7143 191 23.2929 191 24C191 24.7071 190.421 25.2857 189.714 25.2857Z" fill="#1F2937"/>
<path d="M209.003 16.7607L212.797 27.1104V27.5H210.753L209.987 25.2578H205.325L204.539 27.5H202.468V27.1104L206.275 16.7607H209.003ZM205.968 23.3848H209.338L207.745 18.7227H207.588L205.968 23.3848ZM216.919 27.6572H216.912C215.935 27.6572 215.135 27.3018 214.513 26.584C213.891 25.8662 213.576 24.9092 213.576 23.7061C213.576 22.5029 213.884 21.5459 214.506 20.8281C215.128 20.1104 215.935 19.7549 216.926 19.7549C217.644 19.7549 218.259 19.9531 218.771 20.3428H218.977V16.7607H220.856V27.5H219.284L219.004 26.9121H218.854C218.3 27.4111 217.657 27.6572 216.919 27.6572ZM217.281 25.9893C217.869 25.9893 218.327 25.7842 218.655 25.3809C218.983 24.9775 219.147 24.417 219.147 23.6992C219.147 22.9678 218.983 22.4004 218.655 21.9971C218.327 21.5938 217.869 21.3887 217.281 21.3887C216.7 21.3887 216.249 21.5938 215.921 21.9971C215.593 22.4004 215.429 22.9678 215.429 23.6992C215.429 24.417 215.593 24.9775 215.921 25.3809C216.249 25.7842 216.7 25.9893 217.281 25.9893ZM225.888 27.6572H225.881C224.903 27.6572 224.104 27.3018 223.481 26.584C222.859 25.8662 222.545 24.9092 222.545 23.7061C222.545 22.5029 222.853 21.5459 223.475 20.8281C224.097 20.1104 224.903 19.7549 225.895 19.7549C226.612 19.7549 227.228 19.9531 227.74 20.3428H227.945V16.7607H229.825V27.5H228.253L227.973 26.9121H227.822C227.269 27.4111 226.626 27.6572 225.888 27.6572ZM226.25 25.9893C226.838 25.9893 227.296 25.7842 227.624 25.3809C227.952 24.9775 228.116 24.417 228.116 23.6992C228.116 22.9678 227.952 22.4004 227.624 21.9971C227.296 21.5938 226.838 21.3887 226.25 21.3887C225.669 21.3887 225.218 21.5938 224.89 21.9971C224.562 22.4004 224.397 22.9678 224.397 23.6992C224.397 24.417 224.562 24.9775 224.89 25.3809C225.218 25.7842 225.669 25.9893 226.25 25.9893ZM240.564 27.6709L240.571 27.6641C239.033 27.6641 237.789 27.165 236.839 26.1738C235.889 25.1826 235.41 23.8359 235.41 22.127C235.41 20.418 235.889 19.0645 236.839 18.0732C237.789 17.082 239.033 16.583 240.571 16.583C241.891 16.583 242.991 16.9453 243.873 17.6699C244.755 18.3945 245.288 19.3926 245.473 20.6709H243.312C243.183 19.9668 242.875 19.4199 242.39 19.0303C241.904 18.6406 241.296 18.4424 240.564 18.4424C239.621 18.4424 238.876 18.7705 238.329 19.4268C237.782 20.083 237.509 20.9854 237.509 22.1338C237.509 23.2754 237.782 24.1709 238.329 24.8203C238.876 25.4697 239.621 25.791 240.564 25.791C241.296 25.791 241.904 25.5996 242.39 25.21C242.875 24.8203 243.189 24.2803 243.326 23.583H245.473C245.295 24.8613 244.762 25.8594 243.873 26.584C242.984 27.3086 241.884 27.6709 240.564 27.6709ZM252.657 21.0879V21.0947C252.862 21.5049 252.965 22.1611 252.965 23.0566V27.5068H251.386L251.105 26.9189H250.955C250.757 27.1172 250.559 27.2676 250.36 27.3701C249.998 27.5684 249.574 27.6641 249.096 27.6641C248.296 27.6641 247.646 27.4316 247.154 26.9736C246.662 26.5156 246.416 25.9004 246.416 25.1279C246.416 24.1025 246.86 23.4189 247.749 23.0703C248.18 22.8994 248.788 22.8174 249.581 22.8174H251.105V22.4414C251.105 21.6963 250.675 21.3203 249.82 21.3203C249.034 21.3203 248.61 21.6143 248.542 22.2021H246.655C246.71 21.4707 247.004 20.8828 247.53 20.4316C248.057 19.9805 248.829 19.7549 249.848 19.7549C251.283 19.7549 252.22 20.1992 252.657 21.0879ZM250.702 25.5723L250.695 25.5791C250.948 25.3193 251.085 24.875 251.105 24.2393H249.69C249.308 24.2393 249.014 24.2803 248.809 24.3623C248.474 24.4922 248.303 24.7656 248.303 25.1826C248.303 25.4697 248.398 25.6953 248.59 25.8662C248.781 26.0371 249.041 26.1191 249.369 26.1191C249.909 26.1191 250.354 25.9346 250.702 25.5723ZM257.839 27.6572L257.818 27.6982C256.841 27.6982 256.041 27.4521 255.419 26.9668C254.797 26.4814 254.489 25.8115 254.489 24.957H256.349C256.438 25.7842 256.937 26.2012 257.846 26.2012C258.687 26.2012 259.11 25.9141 259.117 25.333C259.117 25.1348 259.056 24.9707 258.933 24.8408C258.81 24.7109 258.687 24.6289 258.57 24.5947C258.454 24.5605 258.304 24.5264 258.126 24.4922L256.909 24.2666C255.351 23.9863 254.571 23.2891 254.571 22.1748C254.571 21.457 254.858 20.876 255.439 20.4385C256.021 20.001 256.745 19.7822 257.613 19.7822C258.481 19.7822 259.213 20.001 259.808 20.4453C260.402 20.8896 260.744 21.4775 260.833 22.2158H258.967C258.837 21.5801 258.379 21.2656 257.593 21.2656C257.265 21.2656 256.991 21.3271 256.779 21.457C256.567 21.5869 256.458 21.7715 256.458 22.0107C256.458 22.2227 256.554 22.373 256.752 22.4619C256.95 22.5508 257.306 22.6396 257.825 22.7354L258.652 22.8857C260.211 23.1865 260.99 23.9385 260.99 25.1416C260.99 25.9072 260.703 26.5156 260.129 26.9736C259.555 27.4316 258.789 27.6572 257.839 27.6572ZM262.699 27.5V16.7539H264.559V20.4932H264.716C265.249 19.9941 265.919 19.748 266.732 19.748C267.703 19.748 268.421 20.0352 268.886 20.6025C269.091 20.8555 269.248 21.1699 269.357 21.5527C269.467 21.9355 269.528 22.2432 269.542 22.4756C269.556 22.708 269.562 23.0156 269.562 23.3984V27.5H267.683V23.8633C267.683 22.8857 267.566 22.2432 267.334 21.9424C267.081 21.6211 266.691 21.4639 266.158 21.4639C265.625 21.4639 265.229 21.6074 264.969 21.9014C264.702 22.2021 264.565 22.8037 264.559 23.7061V27.5H262.699ZM272.591 18.9072C272.27 18.9072 271.996 18.791 271.771 18.5654C271.545 18.3398 271.436 18.0664 271.436 17.7451C271.436 17.4375 271.552 17.1709 271.777 16.9453C272.003 16.7197 272.276 16.6104 272.591 16.6104C272.898 16.6104 273.165 16.7197 273.391 16.9453C273.616 17.1709 273.726 17.4375 273.726 17.7451C273.726 18.0664 273.616 18.3398 273.391 18.5654C273.165 18.791 272.898 18.9072 272.591 18.9072ZM271.654 27.5V19.9121H273.514V27.5H271.654ZM282.811 23.6924L282.804 23.6992C282.804 23.9385 282.797 24.1162 282.79 24.2324H277.034C277.116 24.8408 277.328 25.3057 277.663 25.627C277.998 25.9482 278.436 26.1055 278.969 26.1055C279.707 26.1055 280.227 25.8115 280.534 25.2236H282.578C282.339 25.9961 281.908 26.5977 281.279 27.0215C280.65 27.4453 279.885 27.6572 278.976 27.6572C277.793 27.6572 276.863 27.3018 276.18 26.5908C275.496 25.8799 275.154 24.916 275.154 23.6924C275.154 22.5234 275.496 21.5732 276.18 20.8418C276.863 20.1104 277.793 19.748 278.969 19.748C280.145 19.748 281.081 20.1104 281.771 20.8418C282.462 21.5732 282.811 22.5234 282.811 23.6924ZM278.969 21.3203H278.982C277.964 21.3203 277.335 21.8193 277.096 22.8174H280.835C280.609 21.8193 279.987 21.3203 278.969 21.3203ZM284.424 27.5L284.41 19.9189H285.989L286.27 20.5068H286.427C286.604 20.2812 286.769 20.124 286.919 20.042C287.069 19.96 287.261 19.9189 287.493 19.9189H288.676V21.6279H287.158C286.892 21.6279 286.68 21.7031 286.522 21.8604C286.365 22.0176 286.283 22.2295 286.283 22.5029V27.5H284.424Z" fill="#1F2937"/>
</svg>
