<svg width="459" height="48" viewBox="0 0 459 48" fill="none" xmlns="http://www.w3.org/2000/svg">
<rect x="0.5" y="0.5" width="458" height="47" rx="3.5" fill="white"/>
<rect x="0.5" y="0.5" width="458" height="47" rx="3.5" stroke="#9CA3AF" stroke-dasharray="8 8"/>
<path d="M186.214 25.2857H179.786V31.7143C179.786 32.4214 179.207 33 178.5 33C177.793 33 177.214 32.4214 177.214 31.7143V25.2857H170.786C170.079 25.2857 169.5 24.7071 169.5 24C169.5 23.2929 170.079 22.7143 170.786 22.7143H177.214V16.2857C177.214 15.5786 177.793 15 178.5 15C179.207 15 179.786 15.5786 179.786 16.2857V22.7143H186.214C186.921 22.7143 187.5 23.2929 187.5 24C187.5 24.7071 186.921 25.2857 186.214 25.2857Z" fill="#1F2937"/>
<path d="M205.462 16.7607L209.256 27.1104V27.5H207.212L206.446 25.2578H201.784L200.998 27.5H198.927V27.1104L202.734 16.7607H205.462ZM202.427 23.3848H205.797L204.204 18.7227H204.047L202.427 23.3848ZM213.378 27.6572H213.371C212.394 27.6572 211.594 27.3018 210.972 26.584C210.35 25.8662 210.035 24.9092 210.035 23.7061C210.035 22.5029 210.343 21.5459 210.965 20.8281C211.587 20.1104 212.394 19.7549 213.385 19.7549C214.103 19.7549 214.718 19.9531 215.23 20.3428H215.436V16.7607H217.315V27.5H215.743L215.463 26.9121H215.312C214.759 27.4111 214.116 27.6572 213.378 27.6572ZM213.74 25.9893C214.328 25.9893 214.786 25.7842 215.114 25.3809C215.442 24.9775 215.606 24.417 215.606 23.6992C215.606 22.9678 215.442 22.4004 215.114 21.9971C214.786 21.5938 214.328 21.3887 213.74 21.3887C213.159 21.3887 212.708 21.5938 212.38 21.9971C212.052 22.4004 211.888 22.9678 211.888 23.6992C211.888 24.417 212.052 24.9775 212.38 25.3809C212.708 25.7842 213.159 25.9893 213.74 25.9893ZM222.347 27.6572H222.34C221.362 27.6572 220.562 27.3018 219.94 26.584C219.318 25.8662 219.004 24.9092 219.004 23.7061C219.004 22.5029 219.312 21.5459 219.934 20.8281C220.556 20.1104 221.362 19.7549 222.354 19.7549C223.071 19.7549 223.687 19.9531 224.199 20.3428H224.404V16.7607H226.284V27.5H224.712L224.432 26.9121H224.281C223.728 27.4111 223.085 27.6572 222.347 27.6572ZM222.709 25.9893C223.297 25.9893 223.755 25.7842 224.083 25.3809C224.411 24.9775 224.575 24.417 224.575 23.6992C224.575 22.9678 224.411 22.4004 224.083 21.9971C223.755 21.5938 223.297 21.3887 222.709 21.3887C222.128 21.3887 221.677 21.5938 221.349 21.9971C221.021 22.4004 220.856 22.9678 220.856 23.6992C220.856 24.417 221.021 24.9775 221.349 25.3809C221.677 25.7842 222.128 25.9893 222.709 25.9893ZM232.628 27.5V16.7607H234.727V25.627H239.252V27.5H232.628ZM244.235 27.6572H244.229C243.101 27.6572 242.185 27.2949 241.474 26.5771C240.763 25.8594 240.407 24.8955 240.407 23.6924C240.407 22.4893 240.763 21.5322 241.474 20.8213C242.185 20.1104 243.107 19.7549 244.235 19.7549C245.363 19.7549 246.286 20.1104 246.997 20.8213C247.708 21.5322 248.063 22.4893 248.063 23.6924C248.063 24.8955 247.708 25.8594 246.997 26.5771C246.286 27.2949 245.363 27.6572 244.235 27.6572ZM244.229 26.0166C244.844 26.0166 245.322 25.8115 245.664 25.4014C246.006 24.9912 246.177 24.4238 246.177 23.6924C246.177 22.9609 246.006 22.3936 245.664 21.9902C245.322 21.5869 244.844 21.3818 244.229 21.3818C243.62 21.3818 243.142 21.5869 242.793 21.9902C242.444 22.3936 242.267 22.9609 242.267 23.6924C242.267 24.4238 242.444 24.9912 242.793 25.4014C243.142 25.8115 243.62 26.0166 244.229 26.0166ZM253.054 27.6572H253.033C251.851 27.6572 250.914 27.3018 250.23 26.5908C249.547 25.8799 249.205 24.916 249.205 23.6924C249.205 22.4688 249.547 21.5049 250.23 20.8008C250.914 20.0967 251.851 19.748 253.047 19.748C254.018 19.748 254.817 19.9805 255.439 20.4521C256.062 20.9238 256.451 21.5869 256.602 22.4414H254.667C254.578 22.1064 254.387 21.8467 254.1 21.6621C253.812 21.4775 253.464 21.3818 253.054 21.3818C252.438 21.3818 251.96 21.5869 251.611 21.9902C251.263 22.3936 251.092 22.9609 251.092 23.6924C251.092 24.4238 251.263 24.9912 251.611 25.4014C251.96 25.8115 252.438 26.0166 253.054 26.0166C253.464 26.0166 253.819 25.9209 254.113 25.7363C254.407 25.5518 254.599 25.2852 254.688 24.9365H256.608C256.458 25.7842 256.068 26.4473 255.446 26.9326C254.824 27.418 254.024 27.6572 253.054 27.6572ZM263.827 21.0879V21.0947C264.032 21.5049 264.135 22.1611 264.135 23.0566V27.5068H262.556L262.275 26.9189H262.125C261.927 27.1172 261.729 27.2676 261.53 27.3701C261.168 27.5684 260.744 27.6641 260.266 27.6641C259.466 27.6641 258.816 27.4316 258.324 26.9736C257.832 26.5156 257.586 25.9004 257.586 25.1279C257.586 24.1025 258.03 23.4189 258.919 23.0703C259.35 22.8994 259.958 22.8174 260.751 22.8174H262.275V22.4414C262.275 21.6963 261.845 21.3203 260.99 21.3203C260.204 21.3203 259.78 21.6143 259.712 22.2021H257.825C257.88 21.4707 258.174 20.8828 258.7 20.4316C259.227 19.9805 259.999 19.7549 261.018 19.7549C262.453 19.7549 263.39 20.1992 263.827 21.0879ZM261.872 25.5723L261.865 25.5791C262.118 25.3193 262.255 24.875 262.275 24.2393H260.86C260.478 24.2393 260.184 24.2803 259.979 24.3623C259.644 24.4922 259.473 24.7656 259.473 25.1826C259.473 25.4697 259.568 25.6953 259.76 25.8662C259.951 26.0371 260.211 26.1191 260.539 26.1191C261.079 26.1191 261.523 25.9346 261.872 25.5723ZM268.312 27.5C267.136 27.5 266.548 26.9463 266.548 25.832V21.6211H265.345V19.9121H266.548V16.7607H268.428V19.9121H269.85V21.6211H268.428V25.2441C268.428 25.6064 268.612 25.791 268.981 25.791H269.85V27.5H268.312ZM272.646 18.9072C272.324 18.9072 272.051 18.791 271.825 18.5654C271.6 18.3398 271.49 18.0664 271.49 17.7451C271.49 17.4375 271.606 17.1709 271.832 16.9453C272.058 16.7197 272.331 16.6104 272.646 16.6104C272.953 16.6104 273.22 16.7197 273.445 16.9453C273.671 17.1709 273.78 17.4375 273.78 17.7451C273.78 18.0664 273.671 18.3398 273.445 18.5654C273.22 18.791 272.953 18.9072 272.646 18.9072ZM271.709 27.5V19.9121H273.568V27.5H271.709ZM279.017 27.6572H279.01C277.882 27.6572 276.966 27.2949 276.255 26.5771C275.544 25.8594 275.188 24.8955 275.188 23.6924C275.188 22.4893 275.544 21.5322 276.255 20.8213C276.966 20.1104 277.889 19.7549 279.017 19.7549C280.145 19.7549 281.067 20.1104 281.778 20.8213C282.489 21.5322 282.845 22.4893 282.845 23.6924C282.845 24.8955 282.489 25.8594 281.778 26.5771C281.067 27.2949 280.145 27.6572 279.017 27.6572ZM279.01 26.0166C279.625 26.0166 280.104 25.8115 280.445 25.4014C280.787 24.9912 280.958 24.4238 280.958 23.6924C280.958 22.9609 280.787 22.3936 280.445 21.9902C280.104 21.5869 279.625 21.3818 279.01 21.3818C278.401 21.3818 277.923 21.5869 277.574 21.9902C277.226 22.3936 277.048 22.9609 277.048 23.6924C277.048 24.4238 277.226 24.9912 277.574 25.4014C277.923 25.8115 278.401 26.0166 279.01 26.0166ZM284.479 27.5V19.9053H286.071L286.352 20.4932H286.509C287.042 19.9941 287.712 19.748 288.525 19.748C289.496 19.748 290.214 20.0352 290.679 20.6025C290.884 20.8555 291.041 21.1699 291.15 21.5527C291.26 21.9355 291.321 22.2432 291.335 22.4756C291.349 22.708 291.355 23.0156 291.355 23.3984V27.5H289.476V23.8633C289.476 22.8857 289.359 22.2432 289.127 21.9424C288.874 21.6211 288.484 21.4639 287.951 21.4639C287.418 21.4639 287.021 21.6074 286.762 21.9014C286.495 22.2021 286.358 22.8037 286.352 23.7061V27.5H284.479Z" fill="#1F2937"/>
</svg>
