<svg width="20" height="20" viewBox="0 0 20 20" fill="none" xmlns="http://www.w3.org/2000/svg">
<path fill-rule="evenodd" clip-rule="evenodd" d="M5.0308 10.5581C4.52914 10.5581 4.05375 10.4459 3.63168 10.2336V12.7609C3.63168 15.664 4.61334 16.7798 7.34505 16.8767V15.5814C7.34505 14.0186 8.20087 13.1628 9.76366 13.1628C11.3264 13.1628 12.1823 14.0186 12.1823 15.5814V16.8765C14.9085 16.7778 15.8884 15.6615 15.8884 12.7609V10.2185C15.459 10.4406 14.9732 10.5581 14.4598 10.5581C13.5268 10.5581 12.6562 10.0926 12.0901 9.38252C12.0253 9.47528 11.9543 9.56464 11.8774 9.65023C11.3267 10.2381 10.5826 10.5581 9.76395 10.5581C8.94534 10.5581 8.20116 10.2381 7.67279 9.65023C7.58471 9.55222 7.50449 9.44925 7.43233 9.34191C6.86726 10.0748 5.98145 10.5581 5.0308 10.5581ZM2.01685 7.23162C1.94082 7.97918 2.12367 8.69437 2.53325 9.2808C2.52161 9.32525 2.51541 9.37176 2.51541 9.41954V12.7609C2.51541 16.4298 4.0782 18 7.75447 18H11.7731C15.4419 18 17.0121 16.4298 17.0047 12.7609V9.41954C17.0047 9.36086 16.9953 9.3041 16.978 9.2507C17.373 8.66999 17.5484 7.96644 17.4737 7.23162L17.2653 5.16279C16.9602 2.91535 15.9407 2 13.7528 2H11.5128H11.483H8.03744L8.02237 2.0002L8.00754 2H5.73777C3.54987 2 2.53034 2.91535 2.21778 5.18511L2.01685 7.23162ZM5.73777 3.11628C4.10801 3.11628 3.56475 3.60744 3.32661 5.31162L3.12568 7.34325C3.06615 7.90883 3.23731 8.4372 3.59452 8.83162C3.95173 9.22604 4.45778 9.44185 5.0308 9.44185C5.96847 9.44185 6.83917 8.65302 6.92847 7.72278L7.38987 3.11628H5.73777ZM11.4473 7.84839C11.4323 8.24309 11.286 8.61108 11.0291 8.8986C10.3965 9.59813 9.13139 9.59813 8.49883 8.8986C8.18627 8.55627 8.03744 8.08744 8.08953 7.58883L8.53604 3.11628H10.9747L11.4458 7.83441L11.4473 7.84839ZM12.5838 7.86907C12.7503 8.73424 13.5717 9.44185 14.4598 9.44185C15.0253 9.44185 15.5314 9.22604 15.896 8.83162C16.2532 8.4372 16.417 7.90883 16.3649 7.34325L16.1565 5.29674C15.9258 3.61488 15.3825 3.11628 13.7528 3.11628H12.1321L12.5695 7.4772C12.5827 7.60936 12.5874 7.74016 12.5838 7.86907ZM11.066 15.5814V16.8837H8.46133V15.5814C8.46133 14.6437 8.82598 14.2791 9.76366 14.2791C10.7013 14.2791 11.066 14.6437 11.066 15.5814Z" fill="#452BA5"/>
</svg>
