<svg width="80" height="80" viewBox="0 0 80 80" fill="none" xmlns="http://www.w3.org/2000/svg">
<rect width="80" height="80" rx="40" fill="#F1F3F9"/>
<path fill-rule="evenodd" clip-rule="evenodd" d="M29.0677 41.2283C27.9641 41.2283 26.9182 40.9814 25.9897 40.5143V46.0744C25.9897 52.4612 28.1493 54.916 34.1591 55.1292V52.2794C34.1591 48.8413 36.0419 46.9585 39.48 46.9585C42.9182 46.9585 44.801 48.8413 44.801 52.2794V55.1286C50.7987 54.9116 52.9545 52.4556 52.9545 46.0744V40.4811C52.0099 40.9697 50.9409 41.2283 49.8115 41.2283C47.7589 41.2283 45.8437 40.2042 44.5981 38.6419C44.4556 38.846 44.2996 39.0426 44.1304 39.2309C42.9188 40.5243 41.2816 41.2283 39.4807 41.2283C37.6798 41.2283 36.0425 40.5243 34.8801 39.2309C34.6864 39.0153 34.5099 38.7888 34.3511 38.5526C33.108 40.165 31.1592 41.2283 29.0677 41.2283ZM22.4371 33.91C22.2698 35.5546 22.6721 37.128 23.5731 38.4181C23.5475 38.5159 23.5339 38.6183 23.5339 38.7234V46.0744C23.5339 54.1459 26.972 57.6004 35.0598 57.6004H43.9008C51.9722 57.6004 55.4267 54.1459 55.4103 46.0744V38.7234C55.4103 38.5943 55.3897 38.4694 55.3517 38.3519C56.2207 37.0744 56.6066 35.5266 56.4422 33.91L55.9837 29.3585C55.3125 24.4142 53.0695 22.4004 48.2561 22.4004H43.3281H43.2626H35.6824C35.6713 22.4004 35.6602 22.4005 35.6492 22.4008C35.6383 22.4005 35.6275 22.4004 35.6166 22.4004H30.6231C25.8097 22.4004 23.5667 24.4142 22.8791 29.4076L22.4371 33.91ZM30.6231 24.8562C27.0376 24.8562 25.8424 25.9368 25.3185 29.686L24.8765 34.1555C24.7455 35.3998 25.1221 36.5622 25.9079 37.43C26.6938 38.2977 27.8071 38.7725 29.0677 38.7725C31.1306 38.7725 33.0462 37.037 33.2426 34.9905L34.2577 24.8562H30.6231ZM43.184 35.2669C43.151 36.1352 42.8292 36.9448 42.2639 37.5773C40.8723 39.1163 38.0891 39.1163 36.6974 37.5773C36.0098 36.8242 35.6824 35.7928 35.797 34.6958L36.7793 24.8562H42.1443L43.1808 35.2361L43.184 35.2669ZM45.6843 35.3123C46.0507 37.2157 47.8577 38.7725 49.8115 38.7725C51.0557 38.7725 52.169 38.2977 52.9713 37.43C53.7571 36.5622 54.1173 35.3998 54.0027 34.1555L53.5443 29.6532C53.0368 25.9531 51.8416 24.8562 48.2561 24.8562H44.6907L45.653 34.4502C45.682 34.741 45.6923 35.0287 45.6843 35.3123ZM42.3451 52.2794V55.1446H36.6149V52.2794C36.6149 50.2166 37.4172 49.4143 39.48 49.4143C41.5429 49.4143 42.3451 50.2166 42.3451 52.2794Z" fill="#4B5563"/>
</svg>
