<svg width="20" height="20" viewBox="0 0 20 20" fill="none" xmlns="http://www.w3.org/2000/svg">
<path d="M1 4H19V16H1V4ZM10 7C10.7956 7 11.5587 7.31607 12.1213 7.87868C12.6839 8.44129 13 9.20435 13 10C13 10.7956 12.6839 11.5587 12.1213 12.1213C11.5587 12.6839 10.7956 13 10 13C9.20435 13 8.44129 12.6839 7.87868 12.1213C7.31607 11.5587 7 10.7956 7 10C7 9.20435 7.31607 8.44129 7.87868 7.87868C8.44129 7.31607 9.20435 7 10 7ZM5 6C5 6.53043 4.78929 7.03914 4.41421 7.41421C4.03914 7.78929 3.53043 8 3 8V12C3.53043 12 4.03914 12.2107 4.41421 12.5858C4.78929 12.9609 5 13.4696 5 14H15C15 13.4696 15.2107 12.9609 15.5858 12.5858C15.9609 12.2107 16.4696 12 17 12V8C16.4696 8 15.9609 7.78929 15.5858 7.41421C15.2107 7.03914 15 6.53043 15 6H5Z" fill="#1F2937"/>
</svg>
