<svg width="30" height="29" viewBox="0 0 30 29" fill="none" xmlns="http://www.w3.org/2000/svg">
<path d="M10.3919 25H20.2984C22.2296 25 23.1903 24.0205 23.1903 22.0802V13.6101C23.1903 12.4066 23.0598 11.8844 22.3135 11.1194L17.1641 5.88637C16.4556 5.15841 15.8769 5 14.823 5H10.3919C8.47035 5 7.5 5.98866 7.5 7.92935V22.0802C7.5 24.0297 8.47035 25 10.3919 25ZM10.4664 23.4983C9.50557 23.4983 9.00169 22.9849 9.00169 22.0523V7.95721C9.00169 7.03383 9.50557 6.50169 10.4759 6.50169H14.6176V11.9218C14.6176 13.0971 15.2146 13.6754 16.3712 13.6754H21.6887V22.0523C21.6887 22.9849 21.1939 23.4983 20.224 23.4983H10.4664ZM16.5392 12.2665C16.1754 12.2665 16.0258 12.1176 16.0258 11.7443V6.79104L21.3989 12.2669L16.5392 12.2665ZM18.778 16.2406H11.6974C11.3619 16.2406 11.1195 16.4925 11.1195 16.8098C11.1195 17.1361 11.3623 17.3881 11.6978 17.3881H18.778C18.8543 17.3893 18.9301 17.3752 19.0008 17.3466C19.0715 17.3179 19.1357 17.2754 19.1897 17.2214C19.2436 17.1675 19.2862 17.1032 19.3148 17.0325C19.3434 16.9618 19.3576 16.886 19.3563 16.8098C19.3563 16.4925 19.1044 16.2406 18.778 16.2406ZM18.778 19.4963H11.6974C11.3619 19.4963 11.1195 19.7574 11.1195 20.0838C11.1195 20.401 11.3623 20.6438 11.6978 20.6438H18.778C19.1044 20.6438 19.3563 20.401 19.3563 20.0838C19.3563 19.7574 19.1044 19.4963 18.778 19.4963Z" fill="black"/>
</svg>
