<svg width="25" height="24" viewBox="0 0 25 24" fill="none" xmlns="http://www.w3.org/2000/svg">
<path d="M20.2143 13.2857H13.7857V19.7143C13.7857 20.4214 13.2071 21 12.5 21C11.7929 21 11.2143 20.4214 11.2143 19.7143V13.2857H4.78571C4.07857 13.2857 3.5 12.7071 3.5 12C3.5 11.2929 4.07857 10.7143 4.78571 10.7143H11.2143V4.28571C11.2143 3.57857 11.7929 3 12.5 3C13.2071 3 13.7857 3.57857 13.7857 4.28571V10.7143H20.2143C20.9214 10.7143 21.5 11.2929 21.5 12C21.5 12.7071 20.9214 13.2857 20.2143 13.2857Z" fill="#1F2937"/>
</svg>
