<svg width="18" height="18" viewBox="0 0 18 18" fill="none" xmlns="http://www.w3.org/2000/svg">
<g clip-path="url(#clip0_1077_39931)">
<path d="M9 1.5C4.85775 1.5 1.5 4.85775 1.5 9C1.5 13.1422 4.85775 16.5 9 16.5C13.1422 16.5 16.5 13.1422 16.5 9C16.5 4.85775 13.1422 1.5 9 1.5Z" stroke="#9CA3AF" stroke-width="1.5" stroke-linecap="round" stroke-linejoin="round"/>
<path d="M3.20325 13.7595C3.20325 13.7595 4.875 11.625 9 11.625C13.125 11.625 14.7975 13.7595 14.7975 13.7595M9 9C9.59673 9 10.169 8.76295 10.591 8.34099C11.0129 7.91903 11.25 7.34674 11.25 6.75C11.25 6.15326 11.0129 5.58097 10.591 5.15901C10.169 4.73705 9.59673 4.5 9 4.5C8.40326 4.5 7.83096 4.73705 7.40901 5.15901C6.98705 5.58097 6.75 6.15326 6.75 6.75C6.75 7.34674 6.98705 7.91903 7.40901 8.34099C7.83096 8.76295 8.40326 9 9 9Z" stroke="#9CA3AF" stroke-width="1.5" stroke-linecap="round" stroke-linejoin="round"/>
</g>
<defs>
<clipPath id="clip0_1077_39931">
<rect width="18" height="18" fill="white"/>
</clipPath>
</defs>
</svg>
