<svg width="20" height="20" viewBox="0 0 20 20" fill="none" xmlns="http://www.w3.org/2000/svg">
<path d="M10.0001 19.1673C5.36925 18.1382 1.66675 13.769 1.66675 9.16732V4.16732L10.0001 0.833984L18.3334 4.16732V9.16732C18.3334 13.7707 14.6309 18.1382 10.0001 19.1673ZM3.33341 5.00065V9.16732C3.38104 11.0941 4.05872 12.9522 5.26273 14.4572C6.46674 15.9622 8.13076 17.0312 10.0001 17.5007C11.8694 17.0312 13.5334 15.9622 14.7374 14.4572C15.9414 12.9522 16.6191 11.0941 16.6667 9.16732V5.00065L10.0001 2.50065L3.33341 5.00065Z" fill="#9CA3AF"/>
<path d="M11.5834 7.08333C11.5834 7.95778 10.8745 8.66667 10.0001 8.66667C9.12563 8.66667 8.41675 7.95778 8.41675 7.08333C8.41675 6.20888 9.12563 5.5 10.0001 5.5C10.8745 5.5 11.5834 6.20888 11.5834 7.08333Z" stroke="#9CA3AF"/>
<path d="M7.83562 13.8849C7.22116 13.5163 6.70877 13.0009 6.34383 12.386C6.4161 11.9409 6.85381 11.4867 7.62491 11.1058C8.42785 10.7091 9.38897 10.5 9.99992 10.5C10.6069 10.5 11.5681 10.7091 12.3723 11.1059C13.1448 11.4871 13.5835 11.9414 13.656 12.386C13.291 13.0009 12.7787 13.5163 12.1642 13.8849C11.5098 14.2776 10.763 14.4898 9.99992 14.5C9.23685 14.4898 8.49006 14.2776 7.83562 13.8849Z" stroke="#9CA3AF"/>
</svg>
