<svg width="25" height="24" viewBox="0 0 25 24" fill="none" xmlns="http://www.w3.org/2000/svg">
<path fill-rule="evenodd" clip-rule="evenodd" d="M15.707 10C15.707 12.7614 13.4685 15 10.707 15C7.94561 15 5.70703 12.7614 5.70703 10C5.70703 7.23858 7.94561 5 10.707 5C13.4685 5 15.707 7.23858 15.707 10ZM14.301 16.0082C13.2505 16.6379 12.021 17 10.707 17C6.84104 17 3.70703 13.866 3.70703 10C3.70703 6.13401 6.84104 3 10.707 3C14.573 3 17.707 6.13401 17.707 10C17.707 11.8276 17.0066 13.4916 15.8596 14.7383L19.9141 18.7929C20.3047 19.1834 20.3047 19.8166 19.9141 20.2071C19.5236 20.5976 18.8904 20.5976 18.4999 20.2071L14.301 16.0082Z" fill="#4B5563"/>
</svg>
