<svg width="15" height="14" viewBox="0 0 15 14" fill="none" xmlns="http://www.w3.org/2000/svg">
<path d="M13.2857 7.96429H8.46429V12.7857C8.46429 13.3161 8.03036 13.75 7.5 13.75C6.96964 13.75 6.53571 13.3161 6.53571 12.7857V7.96429H1.71429C1.18393 7.96429 0.75 7.53036 0.75 7C0.75 6.46964 1.18393 6.03571 1.71429 6.03571H6.53571V1.21429C6.53571 0.683929 6.96964 0.25 7.5 0.25C8.03036 0.25 8.46429 0.683929 8.46429 1.21429V6.03571H13.2857C13.8161 6.03571 14.25 6.46964 14.25 7C14.25 7.53036 13.8161 7.96429 13.2857 7.96429Z" fill="white"/>
</svg>
